<?xml version="1.0" encoding="UTF-8"?>
<svg xmlns="http://www.w3.org/2000/svg" viewBox="0 0 1200 430" role="img" aria-labelledby="title desc">
  <title id="title">Amartya Deshmukh — Lead Engineer</title>
  <desc id="desc">A light technical dashboard introducing Amartya Deshmukh and his focus on full-stack engineering, AI, and GPU computing.</desc>
  <defs>
    <linearGradient id="bg" x1="0" y1="0" x2="1" y2="1">
      <stop offset="0" stop-color="#ffffff"/>
      <stop offset="1" stop-color="#f4f7fb"/>
    </linearGradient>
    <linearGradient id="accent" x1="0" y1="0" x2="1" y2="0">
      <stop offset="0" stop-color="#148a63"/>
      <stop offset="0.52" stop-color="#0969da"/>
      <stop offset="1" stop-color="#6e40c9"/>
    </linearGradient>
    <pattern id="grid" width="32" height="32" patternUnits="userSpaceOnUse">
      <path d="M32 0H0V32" fill="none" stroke="#d8e1eb" stroke-width="1"/>
    </pattern>
  </defs>
  <rect x="1" y="1" width="1198" height="428" rx="22" fill="url(#bg)" stroke="#c7d2df" stroke-width="2"/>
  <rect x="1" y="1" width="1198" height="428" rx="22" fill="url(#grid)" opacity="0.52"/>
  <path d="M1 70H1199" stroke="#c7d2df"/>
  <circle cx="32" cy="35" r="6" fill="#cf5555" opacity="0.8"/>
  <circle cx="54" cy="35" r="6" fill="#c89418" opacity="0.8"/>
  <circle cx="76" cy="35" r="6" fill="#148a63" opacity="0.8"/>
  <text x="108" y="41" fill="#57697d" font-family="ui-monospace, SFMono-Regular, Consolas, monospace" font-size="15" letter-spacing="1.2">~/engineering/profile</text>
  <text x="1128" y="41" text-anchor="end" fill="#148a63" font-family="ui-monospace, SFMono-Regular, Consolas, monospace" font-size="14" letter-spacing="1.4">● ONLINE</text>

  <text x="66" y="137" fill="#148a63" font-family="ui-monospace, SFMono-Regular, Consolas, monospace" font-size="16" font-weight="700" letter-spacing="3">LEAD ENGINEER / 01</text>
  <text x="62" y="219" fill="#17202b" font-family="Inter, Segoe UI, Arial, sans-serif" font-size="66" font-weight="800" letter-spacing="2">AMARTYA DESHMUKH</text>
  <rect x="65" y="244" width="610" height="3" rx="1.5" fill="url(#accent)"/>
  <text x="65" y="289" fill="#35475a" font-family="ui-monospace, SFMono-Regular, Consolas, monospace" font-size="21" letter-spacing="1.3">FULL STACK  //  AI + ML  //  GPU COMPUTING</text>
  <text x="65" y="329" fill="#607286" font-family="ui-monospace, SFMono-Regular, Consolas, monospace" font-size="16">Building developer tools and accelerated systems that ship.</text>

  <g transform="translate(980 236)">
    <circle r="112" fill="#f7f9fc" stroke="#c7d2df"/>
    <circle r="82" fill="none" stroke="#0969da" stroke-width="1.5" stroke-dasharray="3 9" opacity="0.7"/>
    <circle r="48" fill="none" stroke="#6e40c9" stroke-width="1.5" opacity="0.65"/>
    <path d="M-82 0H82M0-82V82M-58-58L58 58M58-58L-58 58" stroke="#d0dae5"/>
    <path d="M-82 0L-48-48L0-82L58-58L82 0L48 48L0 82L-58 58Z" fill="none" stroke="url(#accent)" stroke-width="2"/>
    <g fill="#148a63">
      <circle cx="-82" cy="0" r="4"/><circle cx="0" cy="-82" r="4"/><circle cx="82" cy="0" r="4"/><circle cx="0" cy="82" r="4"/>
    </g>
    <circle r="10" fill="#0969da" opacity="0.9"/>
    <text y="138" text-anchor="middle" fill="#607286" font-family="ui-monospace, SFMono-Regular, Consolas, monospace" font-size="12" letter-spacing="2">SYSTEMS / MODELS / COMPUTE</text>
  </g>

  <path d="M65 386H1135" stroke="#c7d2df"/>
  <text x="65" y="409" fill="#607286" font-family="ui-monospace, SFMono-Regular, Consolas, monospace" font-size="12" letter-spacing="1.2">C#  ·  PYTHON  ·  TYPESCRIPT  ·  CUDA</text>
  <text x="1135" y="409" text-anchor="end" fill="#607286" font-family="ui-monospace, SFMono-Regular, Consolas, monospace" font-size="12" letter-spacing="1.2">KONOHAMARU04</text>
</svg>
